<?xml version="1.0" standalone="no"?>
<!DOCTYPE svg PUBLIC "-//W3C//DTD SVG 20010904//EN"
 "http://www.w3.org/TR/2001/REC-SVG-20010904/DTD/svg10.dtd">
<svg version="1.0" xmlns="http://www.w3.org/2000/svg"
 width="352.000000pt" height="352.000000pt" viewBox="0 0 352.000000 352.000000"
 preserveAspectRatio="xMidYMid meet">
<metadata>
Created by potrace 1.14, written by Peter Selinger 2001-2017
</metadata>
<g transform="translate(0.000000,352.000000) scale(0.100000,-0.100000)"
fill="#000000" stroke="none">
<path d="M142 3477 c-26 -27 -27 -45 -8 -83 15 -29 18 -175 4 -190 -4 -4 -36
-10 -70 -13 l-63 -6 -3 -37 c-3 -37 -2 -38 30 -38 54 0 76 -10 87 -40 12 -35
0 -88 -27 -126 -16 -21 -26 -60 -37 -144 -8 -63 -19 -132 -24 -153 -11 -49 -1
-459 14 -535 1 -9 8 -53 15 -97 9 -54 25 -104 51 -155 21 -42 45 -100 53 -130
18 -71 26 -90 48 -120 18 -26 29 -108 31 -255 2 -75 0 -83 -30 -126 l-32 -46
-6 -179 c-3 -98 -8 -204 -10 -234 -10 -140 -17 -302 -20 -492 l-3 -208 1394 0
c963 0 1394 3 1394 10 0 6 -15 66 -34 133 -40 144 -65 252 -70 298 -2 19 -6
45 -9 59 -4 14 -9 41 -12 60 -2 19 -6 44 -9 55 -2 11 -7 54 -10 95 -4 41 -9
91 -11 110 -3 19 -7 82 -10 140 -3 58 -7 117 -9 132 -2 16 1 28 6 28 5 0 5 7
0 18 -5 9 -9 96 -8 193 1 199 4 209 67 209 108 0 323 67 376 116 l36 34 -24
26 c-13 14 -59 44 -101 65 -73 37 -77 41 -72 67 4 19 0 32 -13 44 -23 21 -96
48 -129 48 -18 0 -25 8 -33 35 -13 48 2 100 38 134 43 40 42 78 -3 117 -33 30
-34 32 -30 95 21 317 44 396 164 578 33 50 60 96 60 102 0 15 -50 78 -72 90
-14 8 -30 5 -61 -10 -89 -42 -92 -43 -139 -11 -49 34 -89 37 -149 14 -46 -19
-58 -12 -60 36 0 25 -2 40 -14 130 -8 58 -28 88 -70 106 -65 27 -169 12 -202
-28 -15 -17 -29 -84 -38 -183 -4 -38 -9 -72 -11 -75 -3 -2 -19 2 -37 9 -18 8
-52 16 -77 18 -39 4 -51 0 -89 -29 l-44 -34 -59 29 c-51 25 -62 28 -90 18 -43
-15 -78 -49 -78 -76 0 -12 15 -42 34 -66 106 -140 162 -320 181 -588 l7 -94
-36 -33 c-54 -50 -49 -85 19 -142 12 -10 15 -28 13 -74 l-3 -60 -68 -18 c-88
-22 -94 -28 -106 -111 -1 -3 -39 -25 -86 -48 -47 -24 -87 -51 -90 -62 -19 -59
74 -109 282 -149 59 -12 126 -26 147 -31 l39 -11 -6 -356 c-3 -196 -8 -364
-10 -372 -3 -8 -8 -47 -12 -86 -3 -39 -7 -80 -9 -90 -2 -11 -7 -39 -10 -64 -8
-61 -14 -94 -32 -170 -8 -36 -22 -96 -30 -135 -22 -96 -44 -165 -53 -165 -4 0
-16 9 -26 20 -17 18 -19 40 -20 178 -2 139 -6 194 -22 267 -2 11 -8 49 -14 84
-10 68 -36 137 -61 161 -8 9 -27 36 -43 60 -31 50 -48 68 -86 94 -17 11 -32
35 -42 69 -8 29 -32 97 -51 152 -20 55 -36 114 -36 132 0 66 -58 88 -230 87
l-125 0 23 45 c38 79 41 124 15 226 -13 50 -32 101 -41 115 -10 14 -28 39 -40
55 -22 31 -36 122 -22 140 5 6 9 24 10 40 5 74 -7 85 -32 33 l-15 -33 -26 50
c-47 91 -134 165 -196 165 -28 0 -43 -9 -77 -45 -23 -26 -57 -76 -76 -113 -18
-37 -34 -69 -36 -72 -2 -2 -14 9 -27 25 l-24 30 -1 -38 c0 -21 8 -54 19 -75
38 -75 36 -91 -18 -205 -55 -113 -59 -131 -36 -161 8 -11 15 -24 15 -30 0 -6
-43 35 -96 89 -94 97 -124 142 -124 185 0 11 -4 20 -9 20 -5 0 -12 18 -16 41
-4 23 -16 50 -27 61 -33 33 -47 80 -53 179 -3 52 -8 117 -10 144 -10 102 -10
388 0 392 6 2 9 36 8 80 -1 44 4 89 10 103 7 14 11 36 9 48 -3 20 -8 23 -28
18 -20 -5 -24 -3 -25 16 -1 13 -2 40 -3 62 -3 43 14 66 49 66 43 0 55 10 55
46 l0 34 -54 0 c-88 0 -86 -3 -100 139 -3 24 0 55 6 70 14 34 11 51 -15 79
-26 28 -38 28 -65 -1z"/>
</g>
</svg>
